<?xml version="1.0" encoding="UTF-8" standalone="no"?>
<!-- Created with FreeCAD (http://www.freecadweb.org) -->
<svg xmlns="http://www.w3.org/2000/svg"
     xmlns:xlink="http://www.w3.org/1999/xlink" xmlns:ev="http://www.w3.org/2001/xml-events"
     version="1.1" baseProfile="full"
     width="277" height="190">
<g>
</g>
<path
   d="M 10,10 L 267,10 L 267,180 L 10,180 L 10,10 z "
   style="fill:#ffffff;fill-opacity:1;fill-rule:evenodd;stroke:none;stroke-width:1px;stroke-linecap:butt;stroke-linejoin:miter;stroke-opacity:1" />
<g>
<line x1="138.672" y1="70.9522" x2="138.672" y2="59.6029" stroke="#191919" stroke-width="1px" />
<path d="M 138.672,59.6029 L 89.5301,87.9761 138.672,70.9522 z"
    style="fill:#686868; stroke:#686868;
    stroke-width:1.0;
    stroke-linecap:round;stroke-linejoin:round"/>
<line x1="89.5301" y1="99.3254" x2="138.672" y2="70.9522" stroke="#191919" stroke-width="1px" />
<path d="M 138.672,59.6029 L 138.672,70.9522 207.47,110.675 z"
    style="fill:#858585; stroke:#858585;
    stroke-width:1.0;
    stroke-linecap:round;stroke-linejoin:round"/>
<line x1="89.5301" y1="87.9761" x2="138.672" y2="59.6029" stroke="#191919" stroke-width="1px" />
<line x1="138.672" y1="70.9522" x2="207.47" y2="110.675" stroke="#191919" stroke-width="1px" />
<path d="M 89.5301,87.9761 L 89.5301,99.3254 138.672,70.9522 z"
    style="fill:#686868; stroke:#686868;
    stroke-width:1.0;
    stroke-linecap:round;stroke-linejoin:round"/>
<path d="M 89.5301,99.3254 L 207.47,110.675 138.672,70.9522 z"
    style="fill:#8f8f8f; stroke:#8f8f8f;
    stroke-width:1.0;
    stroke-linecap:round;stroke-linejoin:round"/>
<line x1="138.672" y1="59.6029" x2="207.47" y2="99.3253" stroke="#191919" stroke-width="1px" />
<path d="M 89.5301,87.9761 L 138.672,59.6029 207.47,99.3253 z"
    style="fill:#8f8f8f; stroke:#8f8f8f;
    stroke-width:1.0;
    stroke-linecap:round;stroke-linejoin:round"/>
<path d="M 207.47,99.3253 L 138.672,59.6029 207.47,110.675 z"
    style="fill:#858585; stroke:#858585;
    stroke-width:1.0;
    stroke-linecap:round;stroke-linejoin:round"/>
<line x1="89.5301" y1="99.3254" x2="89.5301" y2="87.9761" stroke="#191919" stroke-width="1px" />
<line x1="207.47" y1="110.675" x2="207.47" y2="99.3253" stroke="#191919" stroke-width="1px" />
<path d="M 89.5301,87.9761 L 158.328,127.698 89.5301,99.3254 z"
    style="fill:#858585; stroke:#858585;
    stroke-width:1.0;
    stroke-linecap:round;stroke-linejoin:round"/>
<path d="M 158.328,139.048 L 207.47,110.675 89.5301,99.3254 z"
    style="fill:#8f8f8f; stroke:#8f8f8f;
    stroke-width:1.0;
    stroke-linecap:round;stroke-linejoin:round"/>
<line x1="158.328" y1="139.048" x2="89.5301" y2="99.3254" stroke="#191919" stroke-width="1px" />
<path d="M 158.328,127.698 L 89.5301,87.9761 207.47,99.3253 z"
    style="fill:#8f8f8f; stroke:#8f8f8f;
    stroke-width:1.0;
    stroke-linecap:round;stroke-linejoin:round"/>
<path d="M 207.47,99.3253 L 207.47,110.675 158.328,139.048 z"
    style="fill:#686868; stroke:#686868;
    stroke-width:1.0;
    stroke-linecap:round;stroke-linejoin:round"/>
<line x1="158.328" y1="127.698" x2="89.5301" y2="87.9761" stroke="#191919" stroke-width="1px" />
<line x1="207.47" y1="110.675" x2="158.328" y2="139.048" stroke="#191919" stroke-width="1px" />
<path d="M 158.328,127.698 L 158.328,139.048 89.5301,99.3254 z"
    style="fill:#858585; stroke:#858585;
    stroke-width:1.0;
    stroke-linecap:round;stroke-linejoin:round"/>
<line x1="207.47" y1="99.3253" x2="158.328" y2="127.698" stroke="#191919" stroke-width="1px" />
<path d="M 158.328,127.698 L 207.47,99.3253 158.328,139.048 z"
    style="fill:#686868; stroke:#686868;
    stroke-width:1.0;
    stroke-linecap:round;stroke-linejoin:round"/>
<line x1="158.328" y1="139.048" x2="158.328" y2="127.698" stroke="#191919" stroke-width="1px" />
</g>
</svg>